<?xml version="1.0" encoding="UTF-8" standalone="no"?>
<!-- Created with Inkscape (http://www.inkscape.org/) -->

<svg
   xmlns:dc="http://purl.org/dc/elements/1.1/"
   xmlns:cc="http://creativecommons.org/ns#"
   xmlns:rdf="http://www.w3.org/1999/02/22-rdf-syntax-ns#"
   xmlns:svg="http://www.w3.org/2000/svg"
   xmlns="http://www.w3.org/2000/svg"
   xmlns:xlink="http://www.w3.org/1999/xlink"
   xmlns:sodipodi="http://sodipodi.sourceforge.net/DTD/sodipodi-0.dtd"
   xmlns:inkscape="http://www.inkscape.org/namespaces/inkscape"
   width="70mm"
   height="20mm"
   id="maarchRMBW"
   version="1.1"
   inkscape:version="0.48.5 r10040"
   sodipodi:docname="RM BW.svg">
  <sodipodi:namedview
     pagecolor="#ffffff"
     bordercolor="#666666"
     borderopacity="1"
     objecttolerance="10"
     gridtolerance="10"
     guidetolerance="10"
     inkscape:pageopacity="0"
     inkscape:pageshadow="2"
     inkscape:window-width="1001"
     inkscape:window-height="648"
     id="namedview4080"
     showgrid="false"
     inkscape:zoom="0.125"
     inkscape:cx="-1517.851"
     inkscape:cy="363.45867"
     inkscape:window-x="1650"
     inkscape:window-y="140"
     inkscape:window-maximized="0"
     inkscape:current-layer="layer1"
     showguides="true"
     inkscape:guide-bbox="true" />
  <defs
     id="defs4">
    <linearGradient
       id="linearGradient3847">
      <stop
         style="stop-color:#000000;stop-opacity:1;"
         offset="0"
         id="stop3849" />
      <stop
         id="stop3869"
         offset="0.25"
         style="stop-color:#000000;stop-opacity:0.4180328;" />
      <stop
         id="stop3867"
         offset="0.5"
         style="stop-color:#000000;stop-opacity:0;" />
      <stop
         style="stop-color:#000000;stop-opacity:0;"
         offset="1"
         id="stop3851" />
    </linearGradient>
    <linearGradient
       inkscape:collect="always"
       xlink:href="#linearGradient3847-1"
       id="linearGradient3853-3"
       x1="70.649841"
       y1="467.51523"
       x2="97.404816"
       y2="467.51523"
       gradientUnits="userSpaceOnUse"
       gradientTransform="translate(0.14301724,-25.862201)" />
    <linearGradient
       id="linearGradient3847-1">
      <stop
         style="stop-color:#000000;stop-opacity:1;"
         offset="0"
         id="stop3849-6" />
      <stop
         id="stop3869-8"
         offset="0.25"
         style="stop-color:#000000;stop-opacity:0.4180328;" />
      <stop
         id="stop3867-8"
         offset="0.5"
         style="stop-color:#000000;stop-opacity:0;" />
      <stop
         style="stop-color:#000000;stop-opacity:0;"
         offset="1"
         id="stop3851-2" />
    </linearGradient>
    <linearGradient
       inkscape:collect="always"
       xlink:href="#linearGradient3847-12"
       id="linearGradient3853-7"
       x1="70.649841"
       y1="467.51523"
       x2="97.404816"
       y2="467.51523"
       gradientUnits="userSpaceOnUse"
       gradientTransform="translate(0.14301724,-25.862201)" />
    <linearGradient
       id="linearGradient3847-12">
      <stop
         style="stop-color:#000000;stop-opacity:1;"
         offset="0"
         id="stop3849-60" />
      <stop
         id="stop3869-4"
         offset="0.25"
         style="stop-color:#000000;stop-opacity:0.66393441;" />
      <stop
         id="stop3867-9"
         offset="0.5"
         style="stop-color:#000000;stop-opacity:0;" />
      <stop
         style="stop-color:#000000;stop-opacity:0;"
         offset="1"
         id="stop3851-4" />
    </linearGradient>
    <linearGradient
       y2="467.51523"
       x2="97.404816"
       y1="467.51523"
       x1="70.649841"
       gradientTransform="translate(259.41588,-528.90737)"
       gradientUnits="userSpaceOnUse"
       id="linearGradient3928"
       xlink:href="#linearGradient3847-12"
       inkscape:collect="always" />
    <linearGradient
       inkscape:collect="always"
       xlink:href="#linearGradient3847-5"
       id="linearGradient3853"
       x1="70.649841"
       y1="467.51523"
       x2="97.404816"
       y2="467.51523"
       gradientUnits="userSpaceOnUse"
       gradientTransform="matrix(0.42829841,0,0,0.42829841,-15.357372,-140.53587)" />
    <linearGradient
       id="linearGradient3847-5">
      <stop
         style="stop-color:#000000;stop-opacity:1;"
         offset="0"
         id="stop3849-5" />
      <stop
         id="stop3869-1"
         offset="0.25"
         style="stop-color:#000000;stop-opacity:0.4180328;" />
      <stop
         id="stop3867-7"
         offset="0.5"
         style="stop-color:#000000;stop-opacity:0;" />
      <stop
         style="stop-color:#000000;stop-opacity:0;"
         offset="1"
         id="stop3851-1" />
    </linearGradient>
    <linearGradient
       y2="467.51523"
       x2="97.404816"
       y1="467.51523"
       x1="70.649841"
       gradientTransform="matrix(0.42521971,0,0,0.43140497,-37.938722,-251.77873)"
       gradientUnits="userSpaceOnUse"
       id="linearGradient4183-1"
       xlink:href="#linearGradient3847-5-5"
       inkscape:collect="always" />
    <linearGradient
       id="linearGradient3847-5-5">
      <stop
         style="stop-color:#000000;stop-opacity:1;"
         offset="0"
         id="stop3849-5-2" />
      <stop
         id="stop3869-1-7"
         offset="0.25"
         style="stop-color:#000000;stop-opacity:0.4180328;" />
      <stop
         id="stop3867-7-6"
         offset="0.5"
         style="stop-color:#000000;stop-opacity:0;" />
      <stop
         style="stop-color:#000000;stop-opacity:0;"
         offset="1"
         id="stop3851-1-1" />
    </linearGradient>
  </defs>
  <metadata
     id="metadata7">
    <rdf:RDF>
      <cc:Work
         rdf:about="">
        <dc:format>image/svg+xml</dc:format>
        <dc:type
           rdf:resource="http://purl.org/dc/dcmitype/StillImage" />
        <dc:title />
      </cc:Work>
    </rdf:RDF>
  </metadata>
  <g
     inkscape:label="Calque 1"
     inkscape:groupmode="layer"
     id="layer1">
    <g
       id="g3871"
       style="fill:#ffffff;fill-opacity:1"
       transform="matrix(1.0591345,0,0,1.0591345,-8.739466,-1.7370995)">
      <flowRoot
         transform="matrix(0.42829841,0,0,0.42829841,-17.418626,-129.45913)"
         style="font-size:40px;font-style:normal;font-weight:normal;line-height:125%;letter-spacing:0px;word-spacing:0px;fill:#ffffff;fill-opacity:1;stroke:none;font-family:Sans"
         id="flowRoot3143"
         xml:space="preserve"><flowRegion
           id="flowRegion3145"><rect
             y="316.64789"
             x="214.28572"
             height="108.57143"
             width="257.14285"
             id="rect3147"
             style="fill:#ffffff;fill-opacity:1" /></flowRegion><flowPara
           id="flowPara3149" /></flowRoot>      <path
         transform="matrix(0.53686708,0,0,0.55627191,-57.856025,-67.286335)"
         d="m 396.25,228.96933 c 0,8.18565 -6.87563,14.82143 -15.35715,14.82143 -8.48151,0 -15.35714,-6.63578 -15.35714,-14.82143 0,-8.18565 6.87563,-14.82143 15.35714,-14.82143 8.48152,0 15.35715,6.63578 15.35715,14.82143 z"
         sodipodi:ry="14.821428"
         sodipodi:rx="15.357142"
         sodipodi:cy="228.96933"
         sodipodi:cx="380.89285"
         id="path3192"
         style="fill:#ffffff;fill-opacity:1;stroke:none"
         sodipodi:type="arc" />
      <flowRoot
         transform="matrix(0.42829841,0,0,0.42829841,-17.418626,-129.45913)"
         style="font-size:40px;font-style:normal;font-weight:normal;line-height:125%;letter-spacing:0px;word-spacing:0px;fill:#ffffff;fill-opacity:1;stroke:none;font-family:Sans"
         id="flowRoot3259"
         xml:space="preserve"><flowRegion
           id="flowRegion3261"><rect
             y="317.71933"
             x="251.42857"
             height="94.64286"
             width="338.92856"
             id="rect3263"
             style="fill:#ffffff;fill-opacity:1" /></flowRegion><flowPara
           id="flowPara3265" /></flowRoot>      <g
         id="flowRoot3267"
         style="font-size:122px;font-style:normal;font-variant:normal;font-weight:normal;font-stretch:normal;line-height:125%;letter-spacing:0px;word-spacing:0px;fill:#ffffff;fill-opacity:1;stroke:none;font-family:Istok Web;-inkscape-font-specification:Istok Web"
         transform="matrix(0.42829841,0,0,0.42829841,-19.447453,-148.73046)">
        <path
           inkscape:connector-curvature="0"
           id="path3048"
           style="letter-spacing:-11.31000042000000000px;fill:#ffffff;fill-opacity:1"
           d="m 263.10547,449.62627 c -1.98569,0 -2.97853,-1.09212 -2.97852,-3.27637 l 0,-78.87109 c -1e-5,-2.18416 0.99283,-3.27628 2.97852,-3.27637 l 12.68848,0 c 1.50908,9e-5 2.64092,1.19149 3.3955,3.57422 l 17.03711,53.43457 c 1.74735,5.48049 2.7799,8.78664 3.09766,9.91846 0.31766,1.13185 0.77436,3.20688 1.37012,6.2251 l 0.35742,0 c 0.59565,-3.01822 1.05235,-5.09325 1.37011,-6.2251 0.31766,-1.13182 1.35021,-4.43797 3.09766,-9.91846 l 17.03711,-53.43457 c 0.75448,-2.38273 1.88632,-3.57413 3.39551,-3.57422 l 12.68847,0 c 1.98559,9e-5 2.97843,1.09221 2.97852,3.27637 l 0,78.87109 c -9e-5,2.18425 -0.99293,3.27637 -2.97852,3.27637 l -5.48046,0 c -1.98576,0 -2.9786,-1.09212 -2.97852,-3.27637 l 0,-62.48925 c -8e-5,-1.58848 0.0396,-3.17702 0.11914,-4.76563 l -0.23828,0 -21.98145,66.89746 c -0.79432,2.42253 -2.10487,3.63379 -3.93164,3.63379 l -6.55273,0 c -1.82687,0 -3.13741,-1.21126 -3.93164,-3.63379 l -21.98145,-66.89746 -0.23828,0 c 0.0794,1.58861 0.11912,3.17715 0.11914,4.76563 l 0,62.48925 c -2e-5,2.18425 -0.99286,3.27637 -2.97851,3.27637 z" />
        <path
           inkscape:connector-curvature="0"
           id="path3050"
           style="letter-spacing:-11.31000042000000000px;fill:#ffffff;fill-opacity:1"
           d="m 345.73785,432.94658 c 0,-7.06898 3.30615,-12.25159 9.91846,-15.54785 6.61228,-3.29619 16.49102,-5.22229 29.63623,-5.77832 l 0,-4.05078 c -4e-5,-3.73303 -0.84396,-6.95975 -2.53174,-9.68017 -1.68786,-2.72033 -5.03373,-4.08051 -10.03759,-4.08057 -3.17712,6e-5 -5.71878,0.30783 -7.625,0.92334 -1.90628,0.61561 -3.64374,1.42974 -5.21241,2.44238 -1.5687,1.01275 -3.06788,2.31337 -4.49756,3.90186 -1.07227,1.19145 -2.08497,1.25102 -3.03808,0.17871 l -3.09766,-3.57422 c -0.8737,-0.99279 -0.57585,-2.18419 0.89356,-3.57422 2.1048,-1.98562 4.15005,-3.47488 6.13574,-4.46777 1.98566,-0.99278 4.45782,-1.83669 7.4165,-2.53174 2.95864,-0.69492 5.96693,-1.04242 9.02491,-1.04248 8.30009,6e-5 14.2174,2.13466 17.75195,6.40381 3.53445,4.26926 5.3017,10.11707 5.30176,17.54345 l 0,36.9336 c -6e-5,1.78711 -0.89361,2.68066 -2.68067,2.68066 l -5.36133,0 c -1.54887,0 -2.32328,-0.89355 -2.32324,-2.68066 l 0,-2.91895 -0.11914,0 c -3.13741,2.46225 -6.20528,4.17985 -9.20361,5.15283 -2.99841,0.97299 -6.34427,1.45948 -10.0376,1.45948 -6.51304,0 -11.52687,-1.55876 -15.0415,-4.67627 -3.51466,-3.11751 -5.27198,-7.45621 -5.27198,-13.01612 z m 10.8418,0.23829 c -2e-5,2.46225 0.51626,4.438 1.54883,5.92724 1.03253,1.48927 2.46222,2.44239 4.28906,2.85938 1.8268,0.417 3.73305,0.62549 5.71875,0.62549 3.05791,0 5.957,-0.29785 8.69727,-0.89356 2.74019,-0.59569 5.55985,-2.16438 8.45898,-4.70605 l 0,-17.57325 c -8.02217,0.59574 -13.74091,1.32051 -17.15625,2.17432 -3.41539,0.85387 -6.19533,2.32327 -8.33984,4.4082 -2.14455,2.08499 -3.21682,4.47772 -3.2168,7.17823 z" />
        <path
           inkscape:connector-curvature="0"
           id="path3052"
           style="letter-spacing:-11.31000042000000000px;fill:#ffffff;fill-opacity:1"
           d="m 398.04895,432.94658 c 0,-7.06898 3.30614,-12.25159 9.91846,-15.54785 6.61228,-3.29619 16.49101,-5.22229 29.63623,-5.77832 l 0,-4.05078 c -5e-5,-3.73303 -0.84396,-6.95975 -2.53174,-9.68017 -1.68787,-2.72033 -5.03373,-4.08051 -10.0376,-4.08057 -3.17711,6e-5 -5.71877,0.30783 -7.625,0.92334 -1.90627,0.61561 -3.64374,1.42974 -5.2124,2.44238 -1.5687,1.01275 -3.06789,2.31337 -4.49756,3.90186 -1.07228,1.19145 -2.08497,1.25102 -3.03809,0.17871 l -3.09765,-3.57422 c -0.87371,-0.99279 -0.57586,-2.18419 0.89355,-3.57422 2.10481,-1.98562 4.15005,-3.47488 6.13575,-4.46777 1.98565,-0.99278 4.45782,-1.83669 7.4165,-2.53174 2.95863,-0.69492 5.96693,-1.04242 9.0249,-1.04248 8.30009,6e-5 14.2174,2.13466 17.75195,6.40381 3.53446,4.26926 5.30171,10.11707 5.30176,17.54345 l 0,36.9336 c -5e-5,1.78711 -0.89361,2.68066 -2.68066,2.68066 l -5.36133,0 c -1.54887,0 -2.32329,-0.89355 -2.32324,-2.68066 l 0,-2.91895 -0.11914,0 c -3.13741,2.46225 -6.20528,4.17985 -9.20362,5.15283 -2.9984,0.97299 -6.34426,1.45948 -10.03759,1.45948 -6.51304,0 -11.52687,-1.55876 -15.04151,-4.67627 -3.51465,-3.11751 -5.27197,-7.45621 -5.27197,-13.01612 z m 10.8418,0.23829 c -2e-5,2.46225 0.51626,4.438 1.54883,5.92724 1.03253,1.48927 2.46221,2.44239 4.28906,2.85938 1.8268,0.417 3.73305,0.62549 5.71875,0.62549 3.05791,0 5.957,-0.29785 8.69726,-0.89356 2.7402,-0.59569 5.55986,-2.16438 8.45899,-4.70605 l 0,-17.57325 c -8.02217,0.59574 -13.74092,1.32051 -17.15625,2.17432 -3.41539,0.85387 -6.19534,2.32327 -8.33985,4.4082 -2.14454,2.08499 -3.21681,4.47772 -3.21679,7.17823 z" />
        <path
           inkscape:connector-curvature="0"
           id="path3054"
           style="letter-spacing:-11.31000042000000000px;fill:#ffffff;fill-opacity:1"
           d="m 456.4362,449.62627 c -1.78712,0 -2.68067,-0.89355 -2.68066,-2.68066 l 0,-57.1875 c -10e-6,-1.78705 0.89354,-2.6806 2.68066,-2.68067 l 5.00391,0 c 1.78709,7e-5 2.68064,0.89362 2.68066,2.68067 l 0,7.14844 0.23828,0 c 1.90623,-3.57417 4.15005,-6.27469 6.73145,-8.10157 2.58135,-1.82676 5.79815,-2.74017 9.65039,-2.74023 2.54163,6e-5 4.32874,0.21849 5.36133,0.65527 0.91337,0.35749 1.25093,0.95319 1.01269,1.78711 l -1.37011,4.88477 c -0.19861,0.7149 -0.71489,0.99289 -1.54883,0.83398 -1.39001,-0.27794 -2.70056,-0.41693 -3.93164,-0.41699 -4.64652,6e-5 -8.47887,2.09494 -11.49707,6.28467 -3.01825,4.18982 -4.52737,9.89864 -4.52735,17.12646 l 0,29.72559 c -2e-5,1.78711 -0.89357,2.68066 -2.68066,2.68066 z" />
        <path
           inkscape:connector-curvature="0"
           id="path3056"
           style="letter-spacing:-11.31000042000000000px;fill:#ffffff;fill-opacity:1"
           d="m 482.17894,418.35186 c -1e-5,-9.33264 2.31331,-17.04699 6.93994,-23.14307 4.62661,-6.09597 11.70554,-9.14398 21.23682,-9.14404 6.43355,6e-5 11.3481,1.14183 14.74365,3.42529 3.39546,2.28359 5.84777,4.61676 7.35693,6.99951 0.83393,1.3106 0.65522,2.36301 -0.53613,3.15723 l -3.75293,2.44238 c -1.19146,0.83403 -2.38286,0.2979 -3.57422,-1.6084 -1.15174,-1.82677 -2.77006,-3.39545 -4.85498,-4.70605 -2.085,-1.31049 -5.21244,-1.96576 -9.38232,-1.96582 -5.44079,6e-5 -9.65042,2.00559 -12.62891,6.0166 -2.97853,4.01111 -4.46779,10.18656 -4.46777,18.52637 -2e-5,8.33986 1.48924,14.51531 4.46777,18.52637 2.97849,4.01107 7.18812,6.0166 12.62891,6.0166 4.40816,0 7.78381,-0.84391 10.12695,-2.53174 2.34305,-1.68782 4.05073,-3.52457 5.12305,-5.51026 1.0325,-1.86652 2.20405,-2.40265 3.51465,-1.60839 l 3.99121,2.38281 c 1.19135,0.71486 1.37006,1.78712 0.53613,3.2168 -0.99289,1.70769 -3.24664,4.10043 -6.76123,7.17822 -3.5147,3.0778 -9.02494,4.6167 -16.53076,4.6167 -9.53128,0 -16.61021,-3.04801 -21.23682,-9.14405 -4.62663,-6.09601 -6.93995,-13.81036 -6.93994,-23.14306 z" />
        <path
           inkscape:connector-curvature="0"
           id="path3058"
           style="letter-spacing:-11.31000042000000000px;fill:#ffffff;fill-opacity:1"
           d="m 538.18341,449.62627 c -1.78712,0 -2.68067,-0.89355 -2.68066,-2.68066 l 0,-82.56446 c -10e-6,-1.78702 0.89354,-2.68057 2.68066,-2.68066 l 5.12305,0 c 1.78709,9e-5 2.68064,0.89364 2.68066,2.68066 l 0,26.56836 c -2e-5,1.19147 -0.0397,2.38287 -0.11914,3.57422 l 0.23828,0 c 2.58136,-2.85931 5.36131,-4.98399 8.33985,-6.37402 2.97848,-1.38991 6.69169,-2.0849 11.13964,-2.08496 7.22782,6e-5 12.42036,2.03538 15.57764,6.10596 3.15717,4.07069 4.73578,9.64051 4.73584,16.70947 l 0,38.06543 c -6e-5,1.78711 -0.89361,2.68066 -2.68066,2.68066 l -5.12305,0 c -1.78716,0 -2.68071,-0.89355 -2.68066,-2.68066 l 0,-35.20606 c -5e-5,-7.78381 -1.29074,-12.71821 -3.87207,-14.80322 -2.58143,-2.08491 -5.85779,-3.12738 -9.82911,-3.12744 -5.16279,6e-5 -9.07457,1.53895 -11.73535,4.6167 -2.66083,3.07785 -3.99123,8.34981 -3.99121,15.81592 l 0,32.7041 c -2e-5,1.78711 -0.89357,2.68066 -2.68066,2.68066 z" />
      </g>
      <path
         transform="matrix(0.40160447,0,0,0.41611999,-26.943662,-35.262675)"
         d="m 396.25,228.96933 c 0,8.18565 -6.87563,14.82143 -15.35715,14.82143 -8.48151,0 -15.35714,-6.63578 -15.35714,-14.82143 0,-8.18565 6.87563,-14.82143 15.35714,-14.82143 8.48152,0 15.35715,6.63578 15.35715,14.82143 z"
         sodipodi:ry="14.821428"
         sodipodi:rx="15.357142"
         sodipodi:cy="228.96933"
         sodipodi:cx="380.89285"
         id="path3192-0"
         style="fill:#ffffff;fill-opacity:1;stroke:none"
         sodipodi:type="arc" />
      <path
         transform="matrix(0.30678119,0,0,0.31786944,-7.4043818,-12.757905)"
         d="m 396.25,228.96933 c 0,8.18565 -6.87563,14.82143 -15.35715,14.82143 -8.48151,0 -15.35714,-6.63578 -15.35714,-14.82143 0,-8.18565 6.87563,-14.82143 15.35714,-14.82143 8.48152,0 15.35715,6.63578 15.35715,14.82143 z"
         sodipodi:ry="14.821428"
         sodipodi:rx="15.357142"
         sodipodi:cy="228.96933"
         sodipodi:cx="380.89285"
         id="path3192-0-9"
         style="fill:#ffffff;fill-opacity:1;stroke:none"
         sodipodi:type="arc" />
      <path
         transform="matrix(0.22869143,0,0,0.23695722,8.334927,5.6816972)"
         d="m 396.25,228.96933 c 0,8.18565 -6.87563,14.82143 -15.35715,14.82143 -8.48151,0 -15.35714,-6.63578 -15.35714,-14.82143 0,-8.18565 6.87563,-14.82143 15.35714,-14.82143 8.48152,0 15.35715,6.63578 15.35715,14.82143 z"
         sodipodi:ry="14.821428"
         sodipodi:rx="15.357142"
         sodipodi:cy="228.96933"
         sodipodi:cx="380.89285"
         id="path3192-0-9-4"
         style="fill:#ffffff;fill-opacity:1;stroke:none"
         sodipodi:type="arc" />
      <g
         transform="translate(-2,0)"
         id="text3107"
         style="font-size:40px;font-style:normal;font-variant:normal;font-weight:normal;font-stretch:normal;line-height:125%;letter-spacing:0px;word-spacing:0px;fill:#ffffff;fill-opacity:1;stroke:none;font-family:Istok Web;-inkscape-font-specification:Istok Web">
        <path
           inkscape:connector-curvature="0"
           id="path3114"
           style="font-size:24px;fill:#ffffff;fill-opacity:1;-inkscape-font-specification:Istok Web"
           d="m 201.84393,66.925026 c -0.39062,0 -0.58594,-0.214844 -0.58593,-0.644531 l 0,-15.515625 c -1e-5,-0.429671 0.19531,-0.644515 0.58593,-0.644532 l 5.66016,0 c 2.2578,1.7e-5 3.89257,0.421892 4.9043,1.265625 1.0117,0.843765 1.51756,1.957045 1.51757,3.339844 -1e-5,1.218761 -0.40821,2.242198 -1.22461,3.070313 -0.81641,0.828133 -1.97852,1.304695 -3.48632,1.429687 l 0,0.02344 c 0.79686,0.593757 1.3242,1.044928 1.58203,1.353515 0.2578,0.3086 0.54686,0.724615 0.86719,1.248047 l 2.64843,4.300781 c 0.3203,0.515626 0.24999,0.773438 -0.21093,0.773438 l -1.33594,0 c -0.3672,0 -0.64064,-0.152344 -0.82031,-0.457031 l -2.4375,-4.183594 c -0.35158,-0.601557 -0.85548,-1.1914 -1.51172,-1.769531 -0.65626,-0.578118 -1.47267,-0.867181 -2.44922,-0.867188 l -2.03906,0 0,6.632813 c -1e-5,0.429687 -0.19532,0.644531 -0.58594,0.644531 z m 1.66407,-9.199219 3.38671,0 c 1.52343,9e-6 2.69531,-0.201162 3.51563,-0.603515 0.8203,-0.402334 1.23046,-1.248036 1.23047,-2.53711 -10e-6,-0.984361 -0.37501,-1.654283 -1.125,-2.009765 -0.75001,-0.355454 -1.76954,-0.533189 -3.0586,-0.533204 l -3.94921,0 z" />
        <path
           inkscape:connector-curvature="0"
           id="path3116"
           style="font-size:24px;fill:#ffffff;fill-opacity:1;-inkscape-font-specification:Istok Web"
           d="m 217.87518,66.925026 c -0.39062,0 -0.58594,-0.214844 -0.58593,-0.644531 l 0,-15.515625 c -1e-5,-0.429671 0.19531,-0.644515 0.58593,-0.644532 l 2.4961,0 c 0.29687,1.7e-5 0.51952,0.234392 0.66797,0.703125 l 3.35156,10.511719 c 0.34374,1.07813 0.54686,1.72852 0.60937,1.951172 0.0625,0.22266 0.15234,0.630862 0.26953,1.224609 l 0.0703,0 c 0.11717,-0.593747 0.20702,-1.001949 0.26953,-1.224609 0.0625,-0.222652 0.26561,-0.873042 0.60937,-1.951172 l 3.35157,-10.511719 c 0.14842,-0.468733 0.37107,-0.703108 0.66796,-0.703125 l 2.4961,0 c 0.39061,1.7e-5 0.58592,0.214861 0.58594,0.644532 l 0,15.515625 c -2e-5,0.429687 -0.19533,0.644531 -0.58594,0.644531 l -1.07813,0 c -0.39064,0 -0.58595,-0.214844 -0.58593,-0.644531 l 0,-12.292969 c -2e-5,-0.312487 0.008,-0.624986 0.0234,-0.9375 l -0.0469,0 -4.32422,13.160156 c -0.15626,0.476563 -0.41407,0.714844 -0.77344,0.714844 l -1.28906,0 c -0.35938,0 -0.6172,-0.238281 -0.77344,-0.714844 l -4.32422,-13.160156 -0.0469,0 c 0.0156,0.312514 0.0234,0.625013 0.0234,0.9375 l 0,12.292969 c -1e-5,0.429687 -0.19532,0.644531 -0.58594,0.644531 z" />
      </g>
      <path
         inkscape:connector-curvature="0"
         id="rect3908"
         d="M 30.375,33.625 15.78125,43.78125 47.40625,65.4375 78.78125,43.59375 64.25,33.625 57,38.6875 64.625,43.90625 47.125,56.09375 29.46875,44 37.4375,38.46875 30.375,33.625 z"
         style="fill:#ffffff;fill-opacity:1;stroke:none" />
      <path
         inkscape:connector-curvature="0"
         id="rect3908-1"
         d="M 47.1875,1.8125 15.8125,23.65625 47.46875,45.3125 78.84375,23.46875 47.1875,1.8125 z M 47,11.84375 64.65625,23.9375 47.15625,36.125 29.5,24.03125 47,11.84375 z"
         style="fill:#ffffff;fill-opacity:1;stroke:none" />
    </g>
  </g>
</svg>
